<mxfile host="app.diagrams.net" agent="Mozilla/5.0 (Windows NT 10.0; Win64; x64; rv:135.0) Gecko/20100101 Firefox/135.0" version="26.0.13">
  <diagram id="l3XgVlyW11FUmhf2l9C4" name="Page-1">
    <mxGraphModel dx="2954" dy="1134" grid="1" gridSize="10" guides="1" tooltips="1" connect="1" arrows="1" fold="1" page="1" pageScale="1" pageWidth="850" pageHeight="1100" math="0" shadow="0">
      <root>
        <mxCell id="0" />
        <mxCell id="1" parent="0" />
        <mxCell id="yNbrENSLQWrK_9bjuIk8-13" value="Start" style="strokeWidth=2;html=1;shape=mxgraph.flowchart.start_2;whiteSpace=wrap;" vertex="1" parent="1">
          <mxGeometry x="90" y="20" width="100" height="100" as="geometry" />
        </mxCell>
        <mxCell id="yNbrENSLQWrK_9bjuIk8-14" value="End" style="strokeWidth=2;html=1;shape=mxgraph.flowchart.terminator;whiteSpace=wrap;" vertex="1" parent="1">
          <mxGeometry x="295" y="970" width="100" height="60" as="geometry" />
        </mxCell>
        <mxCell id="yNbrENSLQWrK_9bjuIk8-29" style="edgeStyle=orthogonalEdgeStyle;rounded=0;orthogonalLoop=1;jettySize=auto;html=1;entryX=0.5;entryY=0;entryDx=0;entryDy=0;" edge="1" parent="1" source="yNbrENSLQWrK_9bjuIk8-15" target="yNbrENSLQWrK_9bjuIk8-16">
          <mxGeometry relative="1" as="geometry" />
        </mxCell>
        <mxCell id="yNbrENSLQWrK_9bjuIk8-15" value="Prompt user for month" style="strokeWidth=2;html=1;shape=mxgraph.flowchart.display;whiteSpace=wrap;" vertex="1" parent="1">
          <mxGeometry x="90" y="150" width="100" height="60" as="geometry" />
        </mxCell>
        <mxCell id="yNbrENSLQWrK_9bjuIk8-30" style="edgeStyle=orthogonalEdgeStyle;rounded=0;orthogonalLoop=1;jettySize=auto;html=1;entryX=0.5;entryY=0;entryDx=0;entryDy=0;" edge="1" parent="1" source="yNbrENSLQWrK_9bjuIk8-16" target="yNbrENSLQWrK_9bjuIk8-17">
          <mxGeometry relative="1" as="geometry" />
        </mxCell>
        <mxCell id="yNbrENSLQWrK_9bjuIk8-16" value="Get int, store in month" style="shape=parallelogram;html=1;strokeWidth=2;perimeter=parallelogramPerimeter;whiteSpace=wrap;rounded=1;arcSize=12;size=0.23;" vertex="1" parent="1">
          <mxGeometry x="45" y="240" width="190" height="50" as="geometry" />
        </mxCell>
        <mxCell id="yNbrENSLQWrK_9bjuIk8-31" style="edgeStyle=orthogonalEdgeStyle;rounded=0;orthogonalLoop=1;jettySize=auto;html=1;entryX=0.5;entryY=0;entryDx=0;entryDy=0;" edge="1" parent="1" source="yNbrENSLQWrK_9bjuIk8-17" target="yNbrENSLQWrK_9bjuIk8-18">
          <mxGeometry relative="1" as="geometry" />
        </mxCell>
        <mxCell id="yNbrENSLQWrK_9bjuIk8-17" value="Store all month names in list" style="rounded=1;whiteSpace=wrap;html=1;absoluteArcSize=1;arcSize=14;strokeWidth=2;" vertex="1" parent="1">
          <mxGeometry x="65" y="340" width="150" height="60" as="geometry" />
        </mxCell>
        <mxCell id="yNbrENSLQWrK_9bjuIk8-18" value="Init month_name for proper indexing from list" style="rounded=1;whiteSpace=wrap;html=1;absoluteArcSize=1;arcSize=14;strokeWidth=2;" vertex="1" parent="1">
          <mxGeometry x="65" y="450" width="150" height="60" as="geometry" />
        </mxCell>
        <mxCell id="yNbrENSLQWrK_9bjuIk8-33" style="edgeStyle=orthogonalEdgeStyle;rounded=0;orthogonalLoop=1;jettySize=auto;html=1;" edge="1" parent="1" source="yNbrENSLQWrK_9bjuIk8-19" target="yNbrENSLQWrK_9bjuIk8-20">
          <mxGeometry relative="1" as="geometry" />
        </mxCell>
        <mxCell id="yNbrENSLQWrK_9bjuIk8-44" value="True" style="edgeLabel;html=1;align=center;verticalAlign=middle;resizable=0;points=[];" vertex="1" connectable="0" parent="yNbrENSLQWrK_9bjuIk8-33">
          <mxGeometry x="-0.05" y="1" relative="1" as="geometry">
            <mxPoint as="offset" />
          </mxGeometry>
        </mxCell>
        <mxCell id="yNbrENSLQWrK_9bjuIk8-19" value="Is month 3, 4, or 5?" style="strokeWidth=2;html=1;shape=mxgraph.flowchart.decision;whiteSpace=wrap;" vertex="1" parent="1">
          <mxGeometry x="65" y="560" width="120" height="120" as="geometry" />
        </mxCell>
        <mxCell id="yNbrENSLQWrK_9bjuIk8-20" value="Set season to Spring" style="rounded=1;whiteSpace=wrap;html=1;absoluteArcSize=1;arcSize=14;strokeWidth=2;" vertex="1" parent="1">
          <mxGeometry x="65" y="760" width="120" height="40" as="geometry" />
        </mxCell>
        <mxCell id="yNbrENSLQWrK_9bjuIk8-21" value="Set season to Summer" style="rounded=1;whiteSpace=wrap;html=1;absoluteArcSize=1;arcSize=14;strokeWidth=2;" vertex="1" parent="1">
          <mxGeometry x="230" y="760" width="120" height="40" as="geometry" />
        </mxCell>
        <mxCell id="yNbrENSLQWrK_9bjuIk8-22" value="Set season to Fall" style="rounded=1;whiteSpace=wrap;html=1;absoluteArcSize=1;arcSize=14;strokeWidth=2;" vertex="1" parent="1">
          <mxGeometry x="405" y="760" width="120" height="40" as="geometry" />
        </mxCell>
        <mxCell id="yNbrENSLQWrK_9bjuIk8-23" value="Set season to Winter" style="rounded=1;whiteSpace=wrap;html=1;absoluteArcSize=1;arcSize=14;strokeWidth=2;" vertex="1" parent="1">
          <mxGeometry x="575" y="760" width="120" height="40" as="geometry" />
        </mxCell>
        <mxCell id="yNbrENSLQWrK_9bjuIk8-39" style="edgeStyle=orthogonalEdgeStyle;rounded=0;orthogonalLoop=1;jettySize=auto;html=1;" edge="1" parent="1" source="yNbrENSLQWrK_9bjuIk8-24" target="yNbrENSLQWrK_9bjuIk8-21">
          <mxGeometry relative="1" as="geometry" />
        </mxCell>
        <mxCell id="yNbrENSLQWrK_9bjuIk8-49" value="True" style="edgeLabel;html=1;align=center;verticalAlign=middle;resizable=0;points=[];" vertex="1" connectable="0" parent="yNbrENSLQWrK_9bjuIk8-39">
          <mxGeometry x="-0.025" y="3" relative="1" as="geometry">
            <mxPoint as="offset" />
          </mxGeometry>
        </mxCell>
        <mxCell id="yNbrENSLQWrK_9bjuIk8-24" value="Is month 6, 7, or 8?" style="strokeWidth=2;html=1;shape=mxgraph.flowchart.decision;whiteSpace=wrap;" vertex="1" parent="1">
          <mxGeometry x="230" y="560" width="120" height="120" as="geometry" />
        </mxCell>
        <mxCell id="yNbrENSLQWrK_9bjuIk8-37" style="edgeStyle=orthogonalEdgeStyle;rounded=0;orthogonalLoop=1;jettySize=auto;html=1;" edge="1" parent="1" source="yNbrENSLQWrK_9bjuIk8-25" target="yNbrENSLQWrK_9bjuIk8-23">
          <mxGeometry relative="1" as="geometry" />
        </mxCell>
        <mxCell id="yNbrENSLQWrK_9bjuIk8-47" value="False" style="edgeLabel;html=1;align=center;verticalAlign=middle;resizable=0;points=[];" vertex="1" connectable="0" parent="yNbrENSLQWrK_9bjuIk8-37">
          <mxGeometry x="-0.6082" relative="1" as="geometry">
            <mxPoint as="offset" />
          </mxGeometry>
        </mxCell>
        <mxCell id="yNbrENSLQWrK_9bjuIk8-38" style="edgeStyle=orthogonalEdgeStyle;rounded=0;orthogonalLoop=1;jettySize=auto;html=1;entryX=0.5;entryY=0;entryDx=0;entryDy=0;" edge="1" parent="1" source="yNbrENSLQWrK_9bjuIk8-25" target="yNbrENSLQWrK_9bjuIk8-22">
          <mxGeometry relative="1" as="geometry" />
        </mxCell>
        <mxCell id="yNbrENSLQWrK_9bjuIk8-48" value="True" style="edgeLabel;html=1;align=center;verticalAlign=middle;resizable=0;points=[];" vertex="1" connectable="0" parent="yNbrENSLQWrK_9bjuIk8-38">
          <mxGeometry x="-0.04" relative="1" as="geometry">
            <mxPoint as="offset" />
          </mxGeometry>
        </mxCell>
        <mxCell id="yNbrENSLQWrK_9bjuIk8-25" value="Is month 9, 10, or 11?" style="strokeWidth=2;html=1;shape=mxgraph.flowchart.decision;whiteSpace=wrap;" vertex="1" parent="1">
          <mxGeometry x="397.5" y="555" width="135" height="130" as="geometry" />
        </mxCell>
        <mxCell id="yNbrENSLQWrK_9bjuIk8-50" style="edgeStyle=orthogonalEdgeStyle;rounded=0;orthogonalLoop=1;jettySize=auto;html=1;" edge="1" parent="1" source="yNbrENSLQWrK_9bjuIk8-27" target="yNbrENSLQWrK_9bjuIk8-14">
          <mxGeometry relative="1" as="geometry" />
        </mxCell>
        <mxCell id="yNbrENSLQWrK_9bjuIk8-27" value="Display the month name and season" style="strokeWidth=2;html=1;shape=mxgraph.flowchart.display;whiteSpace=wrap;" vertex="1" parent="1">
          <mxGeometry x="280" y="850" width="130" height="80" as="geometry" />
        </mxCell>
        <mxCell id="yNbrENSLQWrK_9bjuIk8-28" style="edgeStyle=orthogonalEdgeStyle;rounded=0;orthogonalLoop=1;jettySize=auto;html=1;entryX=0.5;entryY=0;entryDx=0;entryDy=0;entryPerimeter=0;" edge="1" parent="1" source="yNbrENSLQWrK_9bjuIk8-13" target="yNbrENSLQWrK_9bjuIk8-15">
          <mxGeometry relative="1" as="geometry" />
        </mxCell>
        <mxCell id="yNbrENSLQWrK_9bjuIk8-32" style="edgeStyle=orthogonalEdgeStyle;rounded=0;orthogonalLoop=1;jettySize=auto;html=1;entryX=0.5;entryY=0;entryDx=0;entryDy=0;entryPerimeter=0;" edge="1" parent="1" source="yNbrENSLQWrK_9bjuIk8-18" target="yNbrENSLQWrK_9bjuIk8-19">
          <mxGeometry relative="1" as="geometry" />
        </mxCell>
        <mxCell id="yNbrENSLQWrK_9bjuIk8-34" style="edgeStyle=orthogonalEdgeStyle;rounded=0;orthogonalLoop=1;jettySize=auto;html=1;entryX=0;entryY=0.5;entryDx=0;entryDy=0;entryPerimeter=0;" edge="1" parent="1" source="yNbrENSLQWrK_9bjuIk8-19" target="yNbrENSLQWrK_9bjuIk8-24">
          <mxGeometry relative="1" as="geometry" />
        </mxCell>
        <mxCell id="yNbrENSLQWrK_9bjuIk8-45" value="False" style="edgeLabel;html=1;align=center;verticalAlign=middle;resizable=0;points=[];" vertex="1" connectable="0" parent="yNbrENSLQWrK_9bjuIk8-34">
          <mxGeometry x="0.1111" y="4" relative="1" as="geometry">
            <mxPoint as="offset" />
          </mxGeometry>
        </mxCell>
        <mxCell id="yNbrENSLQWrK_9bjuIk8-36" style="edgeStyle=orthogonalEdgeStyle;rounded=0;orthogonalLoop=1;jettySize=auto;html=1;entryX=0;entryY=0.5;entryDx=0;entryDy=0;entryPerimeter=0;" edge="1" parent="1" source="yNbrENSLQWrK_9bjuIk8-24" target="yNbrENSLQWrK_9bjuIk8-25">
          <mxGeometry relative="1" as="geometry" />
        </mxCell>
        <mxCell id="yNbrENSLQWrK_9bjuIk8-46" value="False" style="edgeLabel;html=1;align=center;verticalAlign=middle;resizable=0;points=[];" vertex="1" connectable="0" parent="yNbrENSLQWrK_9bjuIk8-36">
          <mxGeometry x="-0.0737" y="2" relative="1" as="geometry">
            <mxPoint as="offset" />
          </mxGeometry>
        </mxCell>
        <mxCell id="yNbrENSLQWrK_9bjuIk8-40" style="edgeStyle=orthogonalEdgeStyle;rounded=0;orthogonalLoop=1;jettySize=auto;html=1;entryX=0;entryY=0.5;entryDx=0;entryDy=0;entryPerimeter=0;" edge="1" parent="1" source="yNbrENSLQWrK_9bjuIk8-20" target="yNbrENSLQWrK_9bjuIk8-27">
          <mxGeometry relative="1" as="geometry">
            <Array as="points">
              <mxPoint x="120" y="890" />
            </Array>
          </mxGeometry>
        </mxCell>
        <mxCell id="yNbrENSLQWrK_9bjuIk8-41" style="edgeStyle=orthogonalEdgeStyle;rounded=0;orthogonalLoop=1;jettySize=auto;html=1;entryX=0.5;entryY=0;entryDx=0;entryDy=0;entryPerimeter=0;" edge="1" parent="1" source="yNbrENSLQWrK_9bjuIk8-21" target="yNbrENSLQWrK_9bjuIk8-27">
          <mxGeometry relative="1" as="geometry" />
        </mxCell>
        <mxCell id="yNbrENSLQWrK_9bjuIk8-42" style="edgeStyle=orthogonalEdgeStyle;rounded=0;orthogonalLoop=1;jettySize=auto;html=1;entryX=0.992;entryY=0.588;entryDx=0;entryDy=0;entryPerimeter=0;" edge="1" parent="1" source="yNbrENSLQWrK_9bjuIk8-22" target="yNbrENSLQWrK_9bjuIk8-27">
          <mxGeometry relative="1" as="geometry" />
        </mxCell>
        <mxCell id="yNbrENSLQWrK_9bjuIk8-43" style="edgeStyle=orthogonalEdgeStyle;rounded=0;orthogonalLoop=1;jettySize=auto;html=1;entryX=0.992;entryY=0.6;entryDx=0;entryDy=0;entryPerimeter=0;" edge="1" parent="1" source="yNbrENSLQWrK_9bjuIk8-23" target="yNbrENSLQWrK_9bjuIk8-27">
          <mxGeometry relative="1" as="geometry">
            <Array as="points">
              <mxPoint x="635" y="900" />
              <mxPoint x="493" y="900" />
              <mxPoint x="493" y="898" />
            </Array>
          </mxGeometry>
        </mxCell>
      </root>
    </mxGraphModel>
  </diagram>
</mxfile>
